<?xml version="1.0" encoding="UTF-8"?>
<!DOCTYPE svg PUBLIC "-//W3C//DTD SVG 1.1//EN" "http://www.w3.org/Graphics/SVG/1.1/DTD/svg11.dtd">
<!-- Creator: CorelDRAW -->
<svg xmlns="http://www.w3.org/2000/svg" xml:space="preserve" width="7.11111in" height="7.11111in" version="1.1" style="shape-rendering:geometricPrecision; text-rendering:geometricPrecision; image-rendering:optimizeQuality; fill-rule:evenodd; clip-rule:evenodd"
viewBox="0 0 7111.11 7111.11"
 xmlns:xlink="http://www.w3.org/1999/xlink"
 xmlns:xodm="http://www.corel.com/coreldraw/odm/2003">
 <defs>
  <style type="text/css">
   <![CDATA[
    .fil2 {fill:#00ADEE}
    .fil0 {fill:#F48120}
    .fil1 {fill:white}
    .fil4 {fill:#F47A20;fill-rule:nonzero}
    .fil3 {fill:#F48120;fill-rule:nonzero}
    .fil5 {fill:white;fill-rule:nonzero}
   ]]>
  </style>
 </defs>
<symbol id="Fm0-12-0" viewBox="5122.83 -2277.07 3976.55 4550.9">
 <path class="fil0" d="M7113.15 -2277.07c1096.89,1.01 1986.23,890.6 1986.23,1987.96 0,1097.74 -890.35,1988.15 -1988.1,1988.15 -1098.02,0 -1987.94,-889.92 -1988.45,-1987.22l0 -1.87c0.5,-1096.93 889.42,-1986.02 1986.58,-1987.03l3.73 0z"/>
 <path class="fil1" d="M7111.28 -2180.21c679.06,0 1275.3,358.68 1608.54,897l-1589.39 947.69 -1633.1 -939.39c332.58,-542.89 931.04,-905.31 1613.94,-905.31zm1778.22 1246.6c73.36,201 112.61,418.17 112.61,644.48 0,973.97 -736.86,1775.78 -1683.14,1879.44l0 -1587.54 1570.53 -936.39zm-1957.32 2527.01c-960.1,-90.61 -1711.92,-898.6 -1711.92,-1882.53 0,-222.93 38.91,-436.97 109.65,-635.64l1602.26 921.07 0 1597.1z"/>
 <path class="fil2" d="M6101.6 -12.49l0 1322.28c-148.32,-94.12 -282.71,-207.86 -399.6,-338.04l0 -1649.76 1201.53 691.15 0 438.63 -801.93 -464.25zm2460.47 936.08c-115.18,137.58 -249.92,258.68 -399.67,358.97l0 -1323.04 -815.1 465.31 0 -412.24 1214.76 -719.2 0 1630.2z"/>
 <path class="fil3" d="M5472.33 1693.09l105.08 -139.85 -25.74 -302.33 66.13 49.82 17.14 236.81 227.5 -52.43 65.13 49.4 -295.64 57.94 -106.28 140.61 -53.32 -39.97zm383 195l298.07 145.42 126.67 -260.83 -297.76 -145.18 -126.97 260.6zm49.22 -253.78c16.36,-32.74 33.03,-52.49 50.47,-58.29 17.72,-6.76 42.8,-1.6 75.43,14.53l248.96 121.11c32.5,16 51.67,32.56 57.89,50.22 5.7,17.61 0.53,42.76 -15.24,75.92l-92.76 189.6c-16.01,33.33 -32.79,53.01 -50.35,59.13 -17.5,5.98 -42.53,0.78 -74.9,-14.71l-248.72 -121.52c-32.92,-15.89 -52.32,-32.92 -58.42,-50.35 -5.82,-18.21 -0.59,-43.06 15.29,-75.97l92.35 -189.67zm478.89 540.69l83.44 -392.31 40.86 9.07 237.52 324.4c5.35,6.89 11.04,15.72 16.67,25.68 5.69,10.37 11.15,20.87 17.37,33.15 0.36,-13.35 2.14,-26.86 3.81,-41.1 2.13,-13.35 5.28,-32.97 10.61,-56.82l45.85 -214.8 60.31 12.64 -83.68 391.47 -36.53 -7.53 -242.97 -336.68c-1.07,-1.25 -3.08,-3.68 -5.46,-7 -12.28,-16.6 -20.22,-31.79 -24.74,-45.25 -0.89,12.15 -2.54,24.97 -4.97,38.85 -2.09,13.4 -4.99,29.65 -8.78,47.74l-49.47 231.06 -59.83 -12.57zm1005.53 -252.4l-313.37 5.69 4.99 290.13 313.67 -5.22 -1.9 -117.43 -162.2 2.85 -1.36 -51.06 229.15 -4.33 2.38 129.82c0.76,36.53 -5.58,61.56 -18.28,74.96 -13.15,13.4 -37.89,20.53 -74.24,21.18l-258.93 4.57c-36.47,0.82 -61.39,-5.59 -74.79,-18.86 -13.46,-12.93 -20.17,-38.14 -20.52,-74.14l-4.15 -211.25c-0.41,-36.17 5.57,-61.19 18.68,-74.72 12.7,-13.59 37.24,-20.64 73.89,-21.53l258.98 -4.44c35.65,-0.65 60.44,5.57 74.38,17.97 13.69,13.4 20.64,36.53 20.82,70.62l0.53 9.91 -66.13 14.24 -1.6 -58.94zm467.74 -94.83c4.22,6.53 8.07,13.71 11.44,21.83 4.33,7.29 9.09,17.79 14.78,31.01l105.32 248.31 -52.48 22 -156.74 -368.46 50.35 -21.35 281.17 163.97 65.06 -310.82 56.87 -23.96 156.63 368.58 -56.69 23.96 -105.32 -248.54c-1.79,-3.32 -4.39,-11.75 -9.61,-25.33 -4.51,-13.4 -8.43,-23.36 -10.79,-29.82 -0.59,11.37 -1.43,21.58 -2.26,29.4 -0.76,7.89 -1.78,14.54 -2.48,19.52l-54.39 265.04 -15.29 6.53 -231.35 -137.18c-0.65,-0.18 -1.2,-0.76 -2.97,-1.96 -16.49,-10.14 -30.67,-21.11 -41.22,-32.74zm703.8 13.22l-246.72 -315.68 303.89 -237.52 33.63 42.22 -251.7 196.18 69.15 88.07 152.94 -119.86 32.68 41.76 -153.2 119.79 78.47 100.3 253 -197.97 34.33 43.29 -306.48 239.41zm405.94 -367.86l-288.11 -277.97 46.85 -48.52 288.47 278.44 -47.21 48.04z"/>
</symbol>
 <g id="Layer_x0020_1">
  <metadata id="CorelCorpID_0Corel-Layer"/>
  <path class="fil4" d="M1333.33 0l4444.44 0c736.37,0 1333.33,596.96 1333.33,1333.33l0 4444.44c0,736.38 -596.96,1333.33 -1333.33,1333.33l-4444.44 0c-736.38,0 -1333.33,-596.96 -1333.33,-1333.33l0 -4444.44c0,-736.37 596.96,-1333.33 1333.33,-1333.33z"/>
  <path class="fil5" d="M1527.78 527.78l4055.56 0c552.28,0 1000,447.72 1000,1000l0 4055.56c0,552.28 -447.72,1000 -1000,1000l-4055.56 0c-552.28,0 -1000,-447.72 -1000,-1000l0 -4055.56c0,-552.28 447.72,-1000 1000,-1000z"/>
  <g id="_2394823655744">
   <image x="1567.28" y="1278.48" width="3976.55" height="4550.9" xlink:href="logo_Images\logo_ImgID1.png"/>
  </g>
 </g>
</svg>
